<svg width="247" height="187" viewBox="0 0 247 187" fill="none" xmlns="http://www.w3.org/2000/svg">
<path d="M161.459 90.7053C169.107 109.329 159.401 129.579 145.427 125.26L145.91 129.579H161.307L236.894 13.7709L209.098 13.4915L161.459 90.7053Z" fill="#E98349"/>
<path d="M219.77 43.5232L211.766 55.0837H212.198H233.109L246.6 38.3401H223.377L219.77 43.5232Z" fill="#E98349"/>
<path d="M205.439 65.3739L198.554 75.3082H198.91H223.123L236.615 58.59H210.165L205.439 65.3739Z" fill="#E98349"/>
<path d="M185.977 95.0245H212.858L226.35 78.2809H196.979H196.648L185.062 95.0245H185.977Z" fill="#E98349"/>
<path d="M184.224 97.7178H183.97L172.359 114.461H173.223H203.407L216.898 97.7178H184.224Z" fill="#E98349"/>
<path d="M163.314 129.579H171.825L180.184 117.155H171.546L168.014 122.414L163.187 129.579H163.314Z" fill="#E98349"/>
<path d="M130.258 179.53H137.55L150.508 161.44H142.657L130.258 179.53Z" fill="#E98349"/>
<path d="M107.036 161.44L123.5 186.543L139.964 161.44H107.036Z" fill="#E98349"/>
<path d="M101.09 129.579L101.573 125.26C85.7186 131.205 77.8676 101.504 85.5407 90.7053L37.9268 13.4915L10.1309 13.7709L85.7186 129.579H101.09Z" fill="#E98349"/>
<path d="M123.5 26.4494C159.401 29.1426 172.359 50.7391 161.84 86.1065L215.018 0L31.9817 0L83.5338 85.3188C73.015 49.9514 87.599 29.168 123.5 26.4494Z" fill="#E98349"/>
<path d="M34.8018 55.0837H35.2338L27.2304 43.5232L23.6225 38.3401H0.399902L13.8914 55.0837H34.8018Z" fill="#E98349"/>
<path d="M48.0902 75.3082H48.4459L41.5604 65.3739L36.8346 58.59H10.3853L23.8767 75.3082H48.0902Z" fill="#E98349"/>
<path d="M61.9371 95.0245L50.3512 78.2809H50.0209H20.6497L34.1411 95.0245H61.0224H61.9371Z" fill="#E98349"/>
<path d="M73.777 114.461H74.6409L63.0296 97.7178H62.7755H30.1013L43.5928 114.461H73.777Z" fill="#E98349"/>
<path d="M83.6861 129.579H83.8131L78.9857 122.414L75.454 117.155H66.8154L75.1745 129.579H83.6861Z" fill="#E98349"/>
<path d="M96.4917 161.44L109.45 179.53H116.742L104.343 161.44H96.4917Z" fill="#E98349"/>
<path d="M176.958 127.419L175.332 131.205H146.189L146.468 142.003H98.9562L100.023 131.205H51.952C47.7852 134.406 40.671 136.515 31.7021 137.963C33.8872 143.223 37.8508 146.983 44.3806 148.482L174.239 150.108C177.771 149.016 173.426 167.106 175.306 169.545C181.506 163.346 179.905 146.882 179.905 146.882C181.785 147.161 183.157 129.604 181.531 127.445H176.958V127.419Z" fill="#E98349"/>
<path d="M29.2885 138.751L17.6772 140.377C25.9855 150.058 35.9453 157.07 49.5384 158.188L156.174 159.814L159.426 151.988L44.4315 150.362C38.7402 149.295 33.6078 146.018 29.2885 138.751Z" fill="#E98349"/>
<path d="M186.409 133.365H185.342C184.453 133.365 183.716 134.101 183.716 134.991V143.909C183.716 144.798 184.453 145.535 185.342 145.535H186.409C187.299 145.535 188.035 144.798 188.035 143.909V134.991C188.01 134.076 187.299 133.365 186.409 133.365Z" fill="#E98349"/>
<path d="M193.015 133.365H191.948C191.059 133.365 190.322 134.101 190.322 134.991V143.909C190.322 144.798 191.059 145.535 191.948 145.535H193.015C193.904 145.535 194.641 144.798 194.641 143.909V134.991C194.641 134.076 193.904 133.365 193.015 133.365Z" fill="#E98349"/>
<path d="M199.621 133.365H198.554C197.665 133.365 196.928 134.101 196.928 134.991V143.909C196.928 144.798 197.665 145.535 198.554 145.535H199.621C200.51 145.535 201.247 144.798 201.247 143.909V134.991C201.247 134.076 200.51 133.365 199.621 133.365Z" fill="#E98349"/>
<path d="M206.253 133.365H205.186C204.296 133.365 203.56 134.101 203.56 134.991V143.909C203.56 144.798 204.296 145.535 205.186 145.535H206.253C207.142 145.535 207.879 144.798 207.879 143.909V134.991C207.853 134.076 207.142 133.365 206.253 133.365Z" fill="#E98349"/>
<path d="M212.859 133.365H211.791C210.902 133.365 210.165 134.101 210.165 134.991V143.909C210.165 144.798 210.902 145.535 211.791 145.535H212.859C213.748 145.535 214.485 144.798 214.485 143.909V134.991C214.485 134.076 213.748 133.365 212.859 133.365Z" fill="#E98349"/>
<path d="M227.519 132.043L217.991 132.272L216.416 134.94C216.39 134.965 216.365 134.991 216.365 135.042V142.689C216.365 143.985 217.356 145.103 218.651 145.255L220.964 145.535L221.014 146.196C221.141 147.491 222.234 148.482 223.53 148.482H225.994C227.239 148.482 228.281 147.491 228.332 146.246L228.967 133.543C229.018 132.704 228.357 132.018 227.519 132.043Z" fill="#E98349"/>
<path d="M154.04 122.973C155.768 121.55 168.472 104.425 159.122 93.6271C156.784 90.9339 168.268 70.9381 162.221 53.2544C155.107 32.5218 134.12 29.2696 125.025 28.8631C125.025 28.8631 124.237 28.8123 122.941 28.8123C122.916 28.8123 122.916 28.8123 122.916 28.8123C122.89 28.8123 122.89 28.8123 122.89 28.8123C121.544 28.8123 120.807 28.8631 120.807 28.8631C111.736 29.295 90.7242 32.5218 83.6355 53.2544C77.5631 70.9635 89.0473 90.9339 86.7352 93.6271C77.3852 104.425 90.089 121.576 91.8167 122.973C94.9419 125.514 104.876 120.356 103.301 123.024C102.107 125.056 101.014 140.377 101.014 140.377H104.063L105.537 135.042L108.179 135.016L108.687 140.377H114.048L114.557 135.27L116.335 135.016L116.589 140.377H120.934L121.137 134.864H124.669L124.872 140.377H129.217L129.471 135.016L131.249 135.27L131.758 140.377H137.119L137.627 135.016L140.269 135.042L141.743 140.377H144.817C144.817 140.377 143.725 125.056 142.53 123.024C141.006 120.356 150.915 125.514 154.04 122.973ZM153.456 88.0883C154.955 88.0883 156.149 89.3078 156.149 90.7815C156.149 92.2805 154.929 93.4747 153.456 93.4747C151.982 93.4747 150.762 92.2551 150.762 90.7815C150.762 89.3078 151.982 88.0883 153.456 88.0883ZM122.916 54.2707C124.847 54.2707 126.422 55.846 126.422 57.777C126.422 59.7079 124.847 61.2832 122.916 61.2832C120.985 61.2832 119.409 59.7079 119.409 57.777C119.409 55.846 120.985 54.2707 122.916 54.2707ZM126.6 71.802C126.6 73.5805 125.152 75.0542 123.373 75.0542C121.595 75.0542 120.121 73.6059 120.121 71.802C120.121 70.0234 121.569 68.5498 123.373 68.5498C125.177 68.5498 126.6 70.0234 126.6 71.802ZM90.5718 93.5001C89.0727 93.5001 87.8786 92.2805 87.8786 90.8069C87.8786 89.3078 89.0981 88.1137 90.5718 88.1137C92.0454 88.1137 93.265 89.3332 93.265 90.8069C93.265 92.2805 92.0454 93.5001 90.5718 93.5001ZM105.943 113.928C98.499 113.928 92.4519 107.881 92.4519 100.436C92.4519 92.9919 98.499 86.9449 105.943 86.9449C113.388 86.9449 119.435 92.9919 119.435 100.436C119.46 107.881 113.413 113.928 105.943 113.928ZM129.115 123.532C129.09 123.888 128.658 124.015 128.429 123.761C127.896 123.075 127.133 122.287 126.142 121.55C125.075 120.762 124.059 120.28 123.271 120C122.484 120.28 121.467 120.788 120.4 121.55C119.409 122.287 118.673 123.075 118.114 123.761C117.885 124.04 117.453 123.888 117.428 123.532C117.25 120.915 117.377 115.554 121.315 111.667C121.823 111.158 122.484 110.726 123.246 110.295C124.008 110.726 124.669 111.158 125.177 111.667C129.166 115.579 129.293 120.94 129.115 123.532ZM134.197 109.126C131.808 107.779 130.055 106.179 128.836 104.806C128.378 104.273 128.505 103.46 129.141 103.155C131.605 101.859 134.603 100.538 138.135 99.4455C142.505 98.0735 146.443 97.4637 149.594 97.1588C149.746 97.1334 149.899 97.1588 150.051 97.235C152.668 98.2005 153.506 99.7758 153.761 100.233C155.234 103.333 153.329 108.287 148.298 111.438C148.171 111.514 148.018 111.565 147.866 111.59C145.579 111.895 139.939 112.353 134.197 109.126Z" fill="#E98349"/>
<path d="M122.966 59.4031C123.864 59.4031 124.593 58.675 124.593 57.777C124.593 56.8789 123.864 56.1509 122.966 56.1509C122.068 56.1509 121.34 56.8789 121.34 57.777C121.34 58.675 122.068 59.4031 122.966 59.4031Z" fill="#E98349"/>
<path d="M153.455 92.3313C154.354 92.3313 155.082 91.6033 155.082 90.7052C155.082 89.8072 154.354 89.0792 153.455 89.0792C152.557 89.0792 151.829 89.8072 151.829 90.7052C151.829 91.6033 152.557 92.3313 153.455 92.3313Z" fill="#E98349"/>
<path d="M90.5716 92.3313C91.4697 92.3313 92.1977 91.6033 92.1977 90.7052C92.1977 89.8072 91.4697 89.0792 90.5716 89.0792C89.6736 89.0792 88.9456 89.8072 88.9456 90.7052C88.9456 91.6033 89.6736 92.3313 90.5716 92.3313Z" fill="#E98349"/>
<path d="M105.943 110.396C111.458 110.396 115.928 105.926 115.928 100.411C115.928 94.8963 111.458 90.4258 105.943 90.4258C100.429 90.4258 95.958 94.8963 95.958 100.411C95.958 105.926 100.429 110.396 105.943 110.396Z" fill="#E98349"/>
</svg>
