<!-- Generated by IcoMoon.io -->
<svg version="1.1" xmlns="http://www.w3.org/2000/svg" width="32" height="32" viewBox="0 0 32 32">
<title>shield</title>
<path d="M5.775 3.72l0.009 11.373c0 9.389 11.196 14.985 11.196 14.985s11.2-5.284 11.2-15.016c0-9.732 0.002-11.343 0.002-11.343s-5.015-3.652-11.202-3.652c-6.191 0-11.206 3.652-11.206 3.652zM26.441 15.494c0 7.424-8.89 12.578-9.496 12.87v0.028l-0.028-0.013-0.028 0.013v-0.028c-0.606-0.292-9.496-5.446-9.496-12.87l-0.008-10.662c0 0 4.25-2.965 9.504-2.989v-0.002c0 0 0.019 0.002 0.028 0.002l0.028-0.002v0.002c5.254 0.024 9.504 2.989 9.504 2.989l-0.008 10.662zM24.356 15.795c0 6.466-6.91 10.281-7.383 10.536v0.023c0 0-0.019-0.008-0.021-0.011l-0.023 0.011v-0.024c-0.472-0.254-7.381-4.070-7.381-10.536l-0.008-9.278c0 0 3.305-2.579 7.388-2.601v0h0.043c4.085 0.023 7.386 2.601 7.386 2.601l-0.004 9.28z"></path>
</svg>
