<!-- Generated by IcoMoon.io -->
<svg version="1.1" xmlns="http://www.w3.org/2000/svg" width="32" height="32" viewBox="0 0 32 32">
<title>swords</title>
<path d="M9.4 17.875l4.712 4.715-1.884 1.885 1.887 1.887-1.885 1.885-3.3-3.3-3.772 3.772-1.885-1.885 3.772-3.773-3.3-3.299 1.885-1.885 1.885 1.884 1.884-1.885zM4 4l4.728 0.004 15.756 15.757 1.887-1.885 1.885 1.885-3.299 3.3 3.771 3.772-1.885 1.885-3.772-3.772-3.3 3.3-1.885-1.885 1.885-1.887-15.767-15.767-0.004-4.708zM23.276 4l4.724 0.004 0.003 4.697-5.404 5.403-4.715-4.713 5.392-5.391z"></path>
</svg>
